<?xml version="1.0" encoding="utf-8"?>
<!-- Generator: Adobe Illustrator 25.2.1, SVG Export Plug-In . SVG Version: 6.00 Build 0)  -->
<svg version="1.1" id="Capa_1" xmlns="http://www.w3.org/2000/svg" xmlns:xlink="http://www.w3.org/1999/xlink" x="0px" y="0px"
	 viewBox="0 0 612 553.2" style="enable-background:new 0 0 612 553.2;" xml:space="preserve">
<style type="text/css">
	.st0{fill:#C9C9C9;}
	.st1{fill:#00435E;}
	.st2{opacity:0.5;fill:#18A1CD;enable-background:new    ;}
	.st3{font-family:'Poppins-Regular';}
	.st4{font-size:24px;}
	.st5{font-size:7px;}
	.st6{fill:none;}
	.st7{fill:#C6C6C6;}
	.st8{font-family:'Poppins-Medium';}
	.st9{font-size:9px;}
	.st10{font-size:10px;}
	.st11{opacity:0.5;}
	.st12{fill:#18A1CD;}
</style>
<rect x="94" y="130.8" class="st0" width="0.8" height="361.8"/>
<rect x="132.6" y="130.8" class="st0" width="0.8" height="361.8"/>
<rect x="171.2" y="130.8" class="st0" width="0.8" height="361.8"/>
<rect x="209.7" y="130.8" class="st0" width="0.8" height="361.8"/>
<rect x="248.3" y="130.8" class="st0" width="0.8" height="361.8"/>
<rect x="286.9" y="130.8" class="st0" width="0.8" height="361.8"/>
<rect x="325.4" y="130.8" class="st0" width="0.8" height="361.8"/>
<rect x="364" y="130.8" class="st0" width="0.8" height="361.8"/>
<rect x="402.6" y="130.8" class="st0" width="0.8" height="361.8"/>
<rect x="441.1" y="130.8" class="st0" width="0.8" height="361.8"/>
<rect x="479.7" y="130.8" class="st0" width="0.8" height="361.8"/>
<rect x="518.3" y="130.8" class="st0" width="0.8" height="361.8"/>
<rect x="556.8" y="130.8" class="st0" width="0.8" height="361.8"/>
<rect x="474.3" y="87.3" class="st1" width="11.6" height="11.6"/>
<rect x="321.9" y="87.3" class="st2" width="11.6" height="11.6"/>
<text transform="matrix(1 0 0 1 27.5795 44.5368)" class="st3 st4">Gráfico de ICVU en Capitales Regionales </text>
<text transform="matrix(1 0 0 1 30.4569 59.9317)" class="st3 st5">Resultados de salud y satisfacción en relación a el índice de calidad de vida urbana de las 16 capitales regionales en 2019.</text>
<rect x="330.7" y="526" class="st6" width="95.4" height="7.8"/>
<text transform="matrix(1 0 0 1 330.7136 531.2174)" class="st7 st3 st5">Gráfico: Agustina González</text>
<rect x="431.1" y="526" class="st6" width="161.4" height="7.8"/>
<text transform="matrix(1 0 0 1 431.1467 531.2174)" class="st7 st3 st5">Fuente: Cámara Chilena de la Construcción</text>
<text transform="matrix(1 0 0 1 91.9992 121.8945)" class="st0 st8 st9">0</text>
<text transform="matrix(1 0 0 1 128.8172 121.8945)" class="st0 st8 st9">5</text>
<text transform="matrix(1 0 0 1 166.9006 121.8945)" class="st0 st8 st9">10</text>
<text transform="matrix(1 0 0 1 204.8456 121.8945)" class="st0 st8 st9">15</text>
<text transform="matrix(1 0 0 1 243.1174 121.8945)" class="st0 st8 st9">20</text>
<text transform="matrix(1 0 0 1 281.0144 121.8945)" class="st0 st8 st9">25</text>
<text transform="matrix(1 0 0 1 319.6797 121.8945)" class="st0 st8 st9">30</text>
<text transform="matrix(1 0 0 1 358.0661 121.8945)" class="st0 st8 st9">35</text>
<text transform="matrix(1 0 0 1 397.2324 121.8945)" class="st0 st8 st9">40 </text>
<text transform="matrix(1 0 0 1 435.6578 121.8945)" class="st0 st8 st9">45</text>
<text transform="matrix(1 0 0 1 473.7787 121.8945)" class="st0 st8 st9">50</text>
<text transform="matrix(1 0 0 1 512.3214 121.8945)" class="st0 st8 st9">55</text>
<text transform="matrix(1 0 0 1 551.5557 121.8945)" class="st0 st8 st9">60</text>
<text transform="matrix(1 0 0 1 62.1547 141.2391)" class="st8 st10">Arica</text>
<text transform="matrix(1 0 0 1 338.054 95.4132)" class="st3 st5">Índice de Calidad de Vida Urbana</text>
<text transform="matrix(1 0 0 1 491.227 95.4132)" class="st3 st5">Salud y Medio Ambiente</text>
<text transform="matrix(1 0 0 1 50.3948 164.5666)" class="st8 st10">Iquique</text>
<text transform="matrix(1 0 0 1 25.325 187.8332)" class="st8 st10">Antofagasta</text>
<text transform="matrix(1 0 0 1 44.9152 211.0999)" class="st8 st10">Copiapó</text>
<text transform="matrix(1 0 0 1 39.075 234.3665)" class="st8 st10">La Serena</text>
<text transform="matrix(1 0 0 1 33.4852 257.6332)" class="st8 st10">Valparaíso</text>
<text transform="matrix(1 0 0 1 42.775 280.5891)" class="st8 st10">Santiago</text>
<text transform="matrix(1 0 0 1 35.9646 302.6722)" class="st8 st10">Rancagua</text>
<text transform="matrix(1 0 0 1 60.5446 328.2498)" class="st8 st10">Talca</text>
<text transform="matrix(1 0 0 1 52.975 350.6998)" class="st8 st10">Chillán</text>
<text transform="matrix(1 0 0 1 27.325 373.9665)" class="st8 st10">Concepción</text>
<text transform="matrix(1 0 0 1 47.3151 395.4875)" class="st8 st10">Temuco</text>
<text transform="matrix(1 0 0 1 47.4249 420.4998)" class="st8 st10">Valdivia</text>
<text transform="matrix(1 0 0 1 24.1056 443.7665)" class="st8 st10">Puerto Montt</text>
<text transform="matrix(1 0 0 1 26.325 467.0332)" class="st8 st10">Coyahaique</text>
<text transform="matrix(1 0 0 1 20.7655 490.2996)" class="st8 st10">Punta Arenas</text>
<g id="Capa_1_1_">
	<g id="Lineas_grandes_2_" class="st11">
		<rect x="94.3" y="131.5" class="st12" width="399.8" height="14.9"/>
		<rect x="94.3" y="154.7" class="st12" width="454.3" height="14.9"/>
		<rect x="94.3" y="177.8" class="st12" width="463.6" height="14.9"/>
		<rect x="94.3" y="201" class="st12" width="427" height="14.9"/>
		<rect x="94.3" y="224.2" class="st12" width="440.7" height="14.9"/>
		<rect x="94.3" y="247.4" class="st12" width="446.4" height="14.9"/>
		<rect x="94.3" y="270.6" class="st12" width="463.6" height="14.9"/>
		<rect x="94.3" y="293.7" class="st12" width="442.8" height="14.9"/>
		<rect x="94.3" y="316.9" class="st12" width="440.7" height="14.9"/>
		<rect x="94.3" y="340.1" class="st12" width="389.7" height="14.9"/>
		<rect x="94.3" y="363.3" class="st12" width="472.1" height="14.9"/>
		<rect x="94.3" y="386.5" class="st12" width="419.2" height="14.9"/>
		<rect x="94.3" y="409.6" class="st12" width="467.2" height="14.9"/>
		<rect x="94.3" y="432.8" class="st12" width="442.1" height="14.9"/>
		<rect x="94.3" y="456" class="st12" width="414.2" height="14.9"/>
		<rect x="94.3" y="479.2" class="st12" width="482.9" height="14.9"/>
	</g>
	<rect x="94.4" y="135.3" class="st1" width="445.7" height="6"/>
	<rect x="94.4" y="158.6" class="st1" width="422.9" height="6"/>
	<rect x="94.4" y="181.8" class="st1" width="408.6" height="6"/>
	<rect x="94.4" y="205.1" class="st1" width="450.7" height="6"/>
	<rect x="94.4" y="228.4" class="st1" width="479.2" height="6"/>
	<rect x="94.4" y="251.6" class="st1" width="490.6" height="6"/>
	<rect x="94.4" y="274.9" class="st1" width="373" height="6"/>
	<rect x="94.4" y="298.2" class="st1" width="492" height="6"/>
	<rect x="94.4" y="321.4" class="st1" width="460.7" height="6"/>
	<rect x="94.4" y="344.7" class="st1" width="452.8" height="6"/>
	<rect x="94.4" y="368" class="st1" width="472.8" height="6"/>
	<rect x="94.4" y="414.5" class="st1" width="441.4" height="6"/>
	<rect x="94.4" y="391.2" class="st1" width="421.5" height="6"/>
	<rect x="94.4" y="437.8" class="st1" width="492" height="6"/>
	<rect x="94.4" y="461" class="st1" width="457.8" height="6"/>
	<rect x="94.4" y="484.3" class="st1" width="490.6" height="6"/>
</g>
</svg>
