<?xml version="1.0" encoding="utf-8"?>
<!-- Generator: Adobe Illustrator 25.2.1, SVG Export Plug-In . SVG Version: 6.00 Build 0)  -->
<svg version="1.1" xmlns="http://www.w3.org/2000/svg" xmlns:xlink="http://www.w3.org/1999/xlink" x="0px" y="0px"
	 viewBox="0 0 612 455.91" style="enable-background:new 0 0 612 455.91;" xml:space="preserve">
<style type="text/css">
	.st0{fill:#E7E7E7;}
	.st1{fill:#82F5CF;}
	.st2{fill:#18A1CD;}
	.st3{fill:none;}
	.st4{font-family:'Poppins-Regular';}
	.st5{font-size:24px;}
	.st6{font-size:7px;}
	.st7{fill:#C6C6C6;}
	.st8{font-family:'Poppins-Medium';}
	.st9{font-size:9px;}
	.st10{fill-rule:evenodd;clip-rule:evenodd;fill:none;}
	.st11{font-size:10px;}
	.st12{clip-path:url(#SVGID_2_);fill:#18A1CD;}
	.st13{clip-path:url(#SVGID_2_);fill:#82F5CF;}
	.st14{clip-path:url(#SVGID_4_);fill:#18A1CD;}
	.st15{clip-path:url(#SVGID_4_);fill:#82F5CF;}
	.st16{clip-path:url(#SVGID_6_);fill:#18A1CD;}
	.st17{clip-path:url(#SVGID_6_);fill:#82F5CF;}
	.st18{clip-path:url(#SVGID_8_);fill:#18A1CD;}
	.st19{clip-path:url(#SVGID_8_);fill:#82F5CF;}
	.st20{clip-path:url(#SVGID_10_);fill:#18A1CD;}
	.st21{clip-path:url(#SVGID_10_);fill:#82F5CF;}
	.st22{clip-path:url(#SVGID_12_);fill:#18A1CD;}
	.st23{clip-path:url(#SVGID_12_);fill:#82F5CF;}
	.st24{clip-path:url(#SVGID_14_);fill:#18A1CD;}
	.st25{clip-path:url(#SVGID_14_);fill:#82F5CF;}
	.st26{clip-path:url(#SVGID_16_);fill:#18A1CD;}
	.st27{clip-path:url(#SVGID_16_);fill:#82F5CF;}
	.st28{clip-path:url(#SVGID_18_);fill:#18A1CD;}
	.st29{clip-path:url(#SVGID_18_);fill:#82F5CF;}
	.st30{clip-path:url(#SVGID_20_);fill:#18A1CD;}
	.st31{clip-path:url(#SVGID_20_);fill:#82F5CF;}
	.st32{clip-path:url(#SVGID_22_);fill:#18A1CD;}
	.st33{clip-path:url(#SVGID_22_);fill:#82F5CF;}
	.st34{clip-path:url(#SVGID_24_);fill:#18A1CD;}
	.st35{clip-path:url(#SVGID_24_);fill:#82F5CF;}
	.st36{clip-path:url(#SVGID_26_);fill:#18A1CD;}
	.st37{clip-path:url(#SVGID_26_);fill:#82F5CF;}
	.st38{clip-path:url(#SVGID_28_);fill:#18A1CD;}
	.st39{clip-path:url(#SVGID_28_);fill:#82F5CF;}
	.st40{clip-path:url(#SVGID_30_);fill:#18A1CD;}
	.st41{clip-path:url(#SVGID_30_);fill:#82F5CF;}
	.st42{clip-path:url(#SVGID_32_);fill:#18A1CD;}
	.st43{clip-path:url(#SVGID_32_);fill:#82F5CF;}
</style>
<g id="Lineas">
	<rect x="90.03" y="126.77" class="st0" width="0.75" height="285"/>
	<rect x="128.6" y="126.77" class="st0" width="0.75" height="285"/>
	<rect x="167.17" y="126.77" class="st0" width="0.75" height="285"/>
	<rect x="205.74" y="126.77" class="st0" width="0.75" height="285"/>
	<rect x="244.3" y="126.77" class="st0" width="0.75" height="285"/>
	<rect x="282.87" y="126.77" class="st0" width="0.75" height="285"/>
	<rect x="321.44" y="126.77" class="st0" width="0.75" height="285"/>
	<rect x="360.01" y="126.77" class="st0" width="0.75" height="285"/>
	<rect x="398.58" y="126.77" class="st0" width="0.75" height="285"/>
	<rect x="437.14" y="126.77" class="st0" width="0.75" height="285"/>
	<rect x="475.71" y="126.77" class="st0" width="0.75" height="285"/>
	<rect x="514.28" y="126.77" class="st0" width="0.75" height="285"/>
	<rect x="552.85" y="126.77" class="st0" width="0.75" height="285"/>
	<rect x="470.31" y="83.26" class="st1" width="11.6" height="11.6"/>
	<rect x="317.86" y="83.26" class="st2" width="11.6" height="11.6"/>
	<rect x="27.58" y="26.78" class="st3" width="502.62" height="27.97"/>
	<text transform="matrix(1 0 0 1 27.5795 44.5368)" class="st4 st5">Gráfico de índice de calidad de vida </text>
	<rect x="30.46" y="54.75" class="st3" width="502.62" height="11.46"/>
	<text transform="matrix(1 0 0 1 30.4569 59.9317)" class="st4 st6">Resultados de salud y satisfacción en relación a el índice de calidad de vida urbana de las 16 capitales regionales en 2019.</text>
	<rect x="330.71" y="439.04" class="st3" width="95.39" height="7.8"/>
	<text transform="matrix(1 0 0 1 330.7136 444.2174)" class="st7 st4 st6">Gráfico: Agustina González</text>
	<rect x="431.15" y="439.04" class="st3" width="161.43" height="7.8"/>
	<text transform="matrix(1 0 0 1 431.1467 444.2174)" class="st7 st4 st6">Fuente: Cámara Chilena de la Construcción</text>
</g>
<g id="Números">
	<rect x="88" y="111.23" class="st3" width="7.57" height="9.4"/>
	<text transform="matrix(1 0 0 1 87.9992 117.8945)" class="st0 st8 st9">0</text>
	<rect x="124.82" y="111.23" class="st3" width="7.57" height="9.4"/>
	<text transform="matrix(1 0 0 1 124.8172 117.8945)" class="st0 st8 st9">5</text>
	<rect x="162.9" y="111.23" class="st3" width="10.04" height="7.27"/>
	<text transform="matrix(1 0 0 1 162.9006 117.8945)" class="st0 st8 st9">10</text>
	<rect x="200.85" y="111.23" class="st3" width="9.78" height="7.27"/>
	<text transform="matrix(1 0 0 1 200.8456 117.8945)" class="st0 st8 st9">15</text>
	<rect x="239.12" y="111.23" class="st3" width="11.87" height="7.27"/>
	<text transform="matrix(1 0 0 1 239.1174 117.8945)" class="st0 st8 st9">20</text>
	<rect x="277.01" y="111.23" class="st3" width="11.72" height="7.27"/>
	<text transform="matrix(1 0 0 1 277.0144 117.8945)" class="st0 st8 st9">25</text>
	<rect x="315.68" y="111.23" class="st3" width="13.02" height="7.27"/>
	<text transform="matrix(1 0 0 1 315.6797 117.8945)" class="st0 st8 st9">30</text>
	<rect x="354.07" y="111.23" class="st3" width="12.52" height="7.27"/>
	<text transform="matrix(1 0 0 1 354.0661 117.8945)" class="st0 st8 st9">35</text>
	<rect x="393.23" y="111.23" class="st3" width="12.19" height="7.27"/>
	<text transform="matrix(1 0 0 1 393.2324 117.8945)" class="st0 st8 st9">40 </text>
	<rect x="431.66" y="111.23" class="st3" width="11.72" height="7.27"/>
	<text transform="matrix(1 0 0 1 431.6578 117.8945)" class="st0 st8 st9">45</text>
	<rect x="469.78" y="111.23" class="st3" width="11.87" height="7.27"/>
	<text transform="matrix(1 0 0 1 469.7787 117.8945)" class="st0 st8 st9">50</text>
	<rect x="508.32" y="111.23" class="st3" width="11.92" height="7.27"/>
	<text transform="matrix(1 0 0 1 508.3214 117.8945)" class="st0 st8 st9">55</text>
	<rect x="547.56" y="111.23" class="st3" width="12.09" height="7.27"/>
	<text transform="matrix(1 0 0 1 547.5557 117.8945)" class="st0 st8 st9">60</text>
</g>
<g id="Ciudades">
	<rect x="14.54" y="129.84" class="st10" width="70.37" height="8.85"/>
	<text transform="matrix(1 0 0 1 58.6752 137.2391)" class="st8 st11">Arica</text>
	<rect x="334.05" y="86.23" class="st10" width="121.27" height="8.85"/>
	<text transform="matrix(1 0 0 1 334.054 91.4132)" class="st4 st6">Índice de Calidad de Vida Urbana</text>
	<rect x="487.23" y="86.23" class="st10" width="88.3" height="8.85"/>
	<text transform="matrix(1 0 0 1 487.227 91.4132)" class="st4 st6">Salud y Medio Ambiente</text>
	<rect x="14.54" y="148.84" class="st10" width="70.37" height="8.85"/>
	<text transform="matrix(1 0 0 1 46.9154 156.2391)" class="st8 st11">Iquique</text>
	<rect x="14.54" y="167.84" class="st10" width="70.37" height="8.85"/>
	<text transform="matrix(1 0 0 1 21.8456 175.2391)" class="st8 st11">Antofagasta</text>
	<rect x="14.54" y="186.84" class="st10" width="70.37" height="8.85"/>
	<text transform="matrix(1 0 0 1 41.4354 194.2391)" class="st8 st11">Copiapo</text>
	<rect x="14.54" y="205.84" class="st10" width="70.37" height="8.85"/>
	<text transform="matrix(1 0 0 1 35.5956 213.2391)" class="st8 st11">La Serena</text>
	<rect x="14.54" y="224.84" class="st10" width="70.37" height="8.85"/>
	<text transform="matrix(1 0 0 1 30.0057 232.2391)" class="st8 st11">Valparaiso</text>
	<rect x="14.54" y="243.84" class="st10" width="70.37" height="8.85"/>
	<text transform="matrix(1 0 0 1 39.2953 251.2391)" class="st8 st11">Santiago</text>
	<rect x="14.54" y="262.84" class="st10" width="70.37" height="8.85"/>
	<text transform="matrix(1 0 0 1 32.4852 270.2391)" class="st8 st11">Rancagua</text>
	<rect x="14.54" y="281.84" class="st10" width="70.37" height="8.85"/>
	<text transform="matrix(1 0 0 1 57.0648 289.2391)" class="st8 st11">Talca</text>
	<rect x="14.54" y="300.84" class="st10" width="70.37" height="8.85"/>
	<text transform="matrix(1 0 0 1 49.4955 308.2391)" class="st8 st11">Chillán</text>
	<rect x="14.54" y="319.84" class="st10" width="70.37" height="8.85"/>
	<text transform="matrix(1 0 0 1 23.8456 327.2391)" class="st8 st11">Concepción</text>
	<rect x="14.54" y="338.84" class="st10" width="70.37" height="8.85"/>
	<text transform="matrix(1 0 0 1 43.8353 346.2391)" class="st8 st11">Temuco</text>
	<rect x="14.54" y="357.84" class="st10" width="70.37" height="8.85"/>
	<text transform="matrix(1 0 0 1 43.9452 365.2391)" class="st8 st11">Valdivia</text>
	<rect x="14.54" y="376.84" class="st10" width="70.37" height="8.85"/>
	<text transform="matrix(1 0 0 1 20.6258 384.2391)" class="st8 st11">Puerto Montt</text>
	<rect x="14.54" y="395.84" class="st10" width="70.37" height="8.85"/>
	<text transform="matrix(1 0 0 1 22.8456 403.2391)" class="st8 st11">Coyahaique</text>
	<rect x="14.54" y="414.84" class="st10" width="70.37" height="8.85"/>
	<text transform="matrix(1 0 0 1 17.286 422.2391)" class="st8 st11">Punta Arenas</text>
</g>
<g id="Barras">
	<g>
		<defs>
			<rect id="SVGID_1_" x="90.41" y="126.77" width="492.05" height="15"/>
		</defs>
		<clipPath id="SVGID_2_">
			<use xlink:href="#SVGID_1_"  style="overflow:visible;"/>
		</clipPath>
		<rect x="90.41" y="126.77" class="st12" width="397.92" height="15"/>
		<rect x="90.41" y="131.27" class="st13" width="445.7" height="6"/>
	</g>
	<g>
		<defs>
			<rect id="SVGID_3_" x="90.41" y="144.77" width="492.05" height="15"/>
		</defs>
		<clipPath id="SVGID_4_">
			<use xlink:href="#SVGID_3_"  style="overflow:visible;"/>
		</clipPath>
		<rect x="90.41" y="144.77" class="st14" width="452.12" height="15"/>
		<rect x="90.41" y="149.27" class="st15" width="422.88" height="6"/>
	</g>
	<g>
		<defs>
			<rect id="SVGID_5_" x="90.41" y="162.77" width="492.05" height="15"/>
		</defs>
		<clipPath id="SVGID_6_">
			<use xlink:href="#SVGID_5_"  style="overflow:visible;"/>
		</clipPath>
		<rect x="90.41" y="162.77" class="st16" width="461.39" height="15"/>
		<rect x="90.41" y="167.27" class="st17" width="408.62" height="6"/>
	</g>
	<g>
		<defs>
			<rect id="SVGID_7_" x="90.41" y="180.77" width="492.05" height="15"/>
		</defs>
		<clipPath id="SVGID_8_">
			<use xlink:href="#SVGID_7_"  style="overflow:visible;"/>
		</clipPath>
		<rect x="90.41" y="180.77" class="st18" width="425.02" height="15"/>
		<rect x="90.41" y="185.27" class="st19" width="450.69" height="6"/>
	</g>
	<g>
		<defs>
			<rect id="SVGID_9_" x="90.41" y="201.77" width="492.05" height="15"/>
		</defs>
		<clipPath id="SVGID_10_">
			<use xlink:href="#SVGID_9_"  style="overflow:visible;"/>
		</clipPath>
		<rect x="90.41" y="201.77" class="st20" width="438.57" height="15"/>
		<rect x="90.41" y="206.27" class="st21" width="479.22" height="6"/>
	</g>
	<g>
		<defs>
			<rect id="SVGID_11_" x="90.41" y="222.77" width="492.05" height="15"/>
		</defs>
		<clipPath id="SVGID_12_">
			<use xlink:href="#SVGID_11_"  style="overflow:visible;"/>
		</clipPath>
		<rect x="90.41" y="222.77" class="st22" width="444.27" height="15"/>
		<rect x="90.41" y="227.27" class="st23" width="490.63" height="6"/>
	</g>
	<g>
		<defs>
			<rect id="SVGID_13_" x="90.41" y="240.77" width="492.05" height="15"/>
		</defs>
		<clipPath id="SVGID_14_">
			<use xlink:href="#SVGID_13_"  style="overflow:visible;"/>
		</clipPath>
		<rect x="90.41" y="240.77" class="st24" width="461.39" height="15"/>
		<rect x="90.41" y="245.27" class="st25" width="372.96" height="6"/>
	</g>
	<g>
		<defs>
			<rect id="SVGID_15_" x="90.41" y="258.77" width="492.05" height="15"/>
		</defs>
		<clipPath id="SVGID_16_">
			<use xlink:href="#SVGID_15_"  style="overflow:visible;"/>
		</clipPath>
		<rect x="90.41" y="258.77" class="st26" width="440.71" height="15"/>
		<rect x="90.41" y="263.27" class="st27" width="492.05" height="6"/>
	</g>
	<g>
		<defs>
			<rect id="SVGID_17_" x="90.41" y="276.77" width="492.05" height="15"/>
		</defs>
		<clipPath id="SVGID_18_">
			<use xlink:href="#SVGID_17_"  style="overflow:visible;"/>
		</clipPath>
		<rect x="90.41" y="276.77" class="st28" width="438.57" height="15"/>
		<rect x="90.41" y="281.27" class="st29" width="460.68" height="6"/>
	</g>
	<g>
		<defs>
			<rect id="SVGID_19_" x="90.41" y="294.77" width="492.05" height="15"/>
		</defs>
		<clipPath id="SVGID_20_">
			<use xlink:href="#SVGID_19_"  style="overflow:visible;"/>
		</clipPath>
		<rect x="90.41" y="294.77" class="st30" width="387.94" height="15"/>
		<rect x="90.41" y="299.27" class="st31" width="452.83" height="6"/>
	</g>
	<g>
		<defs>
			<rect id="SVGID_21_" x="90.41" y="312.77" width="492.05" height="15"/>
		</defs>
		<clipPath id="SVGID_22_">
			<use xlink:href="#SVGID_21_"  style="overflow:visible;"/>
		</clipPath>
		<rect x="90.41" y="312.77" class="st32" width="469.95" height="15"/>
		<rect x="90.41" y="317.27" class="st33" width="472.8" height="6"/>
	</g>
	<g>
		<defs>
			<rect id="SVGID_23_" x="90.41" y="330.77" width="492.05" height="15"/>
		</defs>
		<clipPath id="SVGID_24_">
			<use xlink:href="#SVGID_23_"  style="overflow:visible;"/>
		</clipPath>
		<rect x="90.41" y="330.77" class="st34" width="417.18" height="15"/>
		<rect x="90.41" y="335.27" class="st35" width="421.46" height="6"/>
	</g>
	<g>
		<defs>
			<rect id="SVGID_25_" x="90.41" y="348.77" width="492.05" height="15"/>
		</defs>
		<clipPath id="SVGID_26_">
			<use xlink:href="#SVGID_25_"  style="overflow:visible;"/>
		</clipPath>
		<rect x="90.41" y="348.77" class="st36" width="464.96" height="15"/>
		<rect x="90.41" y="353.27" class="st37" width="441.42" height="6"/>
	</g>
	<g>
		<defs>
			<rect id="SVGID_27_" x="90.41" y="369.77" width="492.05" height="15"/>
		</defs>
		<clipPath id="SVGID_28_">
			<use xlink:href="#SVGID_27_"  style="overflow:visible;"/>
		</clipPath>
		<rect x="90.41" y="369.77" class="st38" width="440" height="15"/>
		<rect x="90.41" y="374.27" class="st39" width="492.05" height="6"/>
	</g>
	<g>
		<defs>
			<rect id="SVGID_29_" x="90.41" y="390.77" width="492.05" height="15"/>
		</defs>
		<clipPath id="SVGID_30_">
			<use xlink:href="#SVGID_29_"  style="overflow:visible;"/>
		</clipPath>
		<rect x="90.41" y="390.77" class="st40" width="412.18" height="15"/>
		<rect x="90.41" y="395.27" class="st41" width="457.82" height="6"/>
	</g>
	<g>
		<defs>
			<rect id="SVGID_31_" x="90.41" y="411.77" width="492.05" height="15"/>
		</defs>
		<clipPath id="SVGID_32_">
			<use xlink:href="#SVGID_31_"  style="overflow:visible;"/>
		</clipPath>
		<rect x="90.41" y="411.77" class="st42" width="480.64" height="15"/>
		<rect x="90.41" y="416.27" class="st43" width="490.63" height="6"/>
	</g>
</g>
</svg>
